<?xml version="1.0" encoding="UTF-8" standalone="no"?>
<svg
   id="157b87cc-8b9b-4d5e-a986-822dc24578af"
   data-name="Layer 1"
   width="1103.13"
   height="834.15"
   viewBox="0 0 1103.13 834.15"
   version="1.1"
   sodipodi:docname="svg-3.svg"
   inkscape:version="1.1 (ce6663b3b7, 2021-05-25)"
   xmlns:inkscape="http://www.inkscape.org/namespaces/inkscape"
   xmlns:sodipodi="http://sodipodi.sourceforge.net/DTD/sodipodi-0.dtd"
   xmlns="http://www.w3.org/2000/svg"
   xmlns:svg="http://www.w3.org/2000/svg">
  <sodipodi:namedview
     id="namedview616"
     pagecolor="#ffffff"
     bordercolor="#666666"
     borderopacity="1.0"
     inkscape:pageshadow="2"
     inkscape:pageopacity="0.0"
     inkscape:pagecheckerboard="0"
     showgrid="false"
     inkscape:zoom="0.39841776"
     inkscape:cx="348.88003"
     inkscape:cy="259.77758"
     inkscape:window-width="1366"
     inkscape:window-height="654"
     inkscape:window-x="0"
     inkscape:window-y="0"
     inkscape:window-maximized="1"
     inkscape:current-layer="g438" />
  <defs
     id="defs9">
    <linearGradient
       id="ceac7335-2455-461d-90f8-41e05a42a239"
       x1="394.52"
       y1="617.07"
       x2="394.52"
       y2="476.78"
       gradientUnits="userSpaceOnUse">
      <stop
         offset="0"
         stop-color="gray"
         stop-opacity="0.25"
         id="stop2" />
      <stop
         offset="0.54"
         stop-color="gray"
         stop-opacity="0.12"
         id="stop4" />
      <stop
         offset="1"
         stop-color="gray"
         stop-opacity="0.1"
         id="stop6" />
    </linearGradient>
  </defs>
  <title
     id="title11">off road</title>
  <path
     d="M99.6,363.79C116.43,410,152.05,450,208.35,469.39c117,40.27,380.86,19.5,577.78-4.34C888,452.72,977.52,418.7,1042.56,370.79Z"
     transform="translate(-48.43 -32.93)"
     fill="#01bf71"
     opacity="0.1"
     id="path13" />
  <path
     d="M1132.28,146.09h-108c-5.13,0-9.34-2.7-9.34-6s4.21-6,9.34-6h18.68c-5.14,0-9.34-2.7-9.34-6s4.2-6,9.34-6h-13.34c-5.14,0-9.34-2.7-9.34-6s4.2-6,9.34-6H1086c-12.51-3.75-27.1-6.41-44-7.8C888.2,89.57,833.29,98,813.92,106.61a287,287,0,0,1-79,22.28C640,141.47,462.57,156.62,301.75,124c-79.93-16.19-139.34,11.17-174.95,56.9H1151.05c-1.34-13.3-5.34-25.57-12.69-36.31A12.65,12.65,0,0,1,1132.28,146.09Z"
     transform="translate(-48.43 -32.93)"
     fill="#01bf71"
     opacity="0.1"
     id="path15" />
  <path
     d="M90.43,267.25a198.53,198.53,0,0,0,4.19,80.69l948.67,22.31c26.26-19.44,48.51-41.16,65.91-64.63Zm375.21,57.56H447c5.13,0,9.33,2.71,9.33,6s-4.2,6-9.33,6h-108c-5.14,0-9.34-2.7-9.34-6s4.2-6,9.34-6h18.67c-5.13,0-9.34-2.7-9.34-6s4.21-6,9.34-6H344.25c-5.13,0-9.34-2.71-9.34-6s4.21-6,9.34-6H452.3c5.14,0,9.34,2.7,9.34,6s-4.2,6-9.34,6h13.34c5.14,0,9.34,2.7,9.34,6S470.78,324.81,465.64,324.81Z"
     transform="translate(-48.43 -32.93)"
     fill="#01bf71"
     opacity="0.1"
     id="path17" />
  <path
     d="M1151.09,181.35,115.37,197.55a190.42,190.42,0,0,0-24.8,68.78H1132.94a201.59,201.59,0,0,0,15-43.84C1151.09,208.15,1152.33,194.27,1151.09,181.35ZM300.86,234.43H282.18c5.14,0,9.34,2.71,9.34,6s-4.2,6-9.34,6h-108c-5.14,0-9.34-2.7-9.34-6s4.2-6,9.34-6h18.68c-5.14,0-9.34-2.7-9.34-6s4.2-6,9.34-6H179.47c-5.14,0-9.34-2.71-9.34-6s4.2-6,9.34-6h108c5.13,0,9.33,2.7,9.33,6s-4.2,6-9.33,6h13.34c5.13,0,9.33,2.7,9.33,6S306,234.43,300.86,234.43Z"
     transform="translate(-48.43 -32.93)"
     fill="#01bf71"
     opacity="0.1"
     id="path19" />
  <rect
     x="580.73"
     y="263.67"
     width="5.57"
     height="307.05"
     fill="#535f89"
     id="rect21"
     style="fill:#a8a8a8;fill-opacity:1" />
  <polygon
     points="557.1 214.21 578.26 204.08 609.46 211.54 585.25 193.24 557.1 214.21"
     fill="#01bf71"
     id="polygon31" />
  <polygon
     points="563.29 217.45 557.1 214.21 578.26 204.08 609.46 211.54 603.97 214.21 578.26 208.44 563.29 217.45"
     fill="#01bf71"
     id="polygon33" />
  <polygon
     points="563.29 217.45 557.1 214.21 578.26 204.08 609.46 211.54 603.97 214.21 578.26 208.44 563.29 217.45"
     opacity="0.1"
     id="polygon35" />
  <polygon
     points="562.45 215.06 579.48 262.78 587.92 262.78 603.69 212.1 578.26 206.19 562.45 215.06"
     fill="#01bf71"
     opacity="0.2"
     id="polygon37" />
  <polygon
     points="592.1 249.35 588.74 260.17 587.92 262.78 579.48 262.78 578.85 261.01 574.87 249.86 581.26 246.02 592.1 249.35"
     fill="#01bf71"
     id="polygon39" />
  <polygon
     points="578.26 208.44 582.29 262.78 579.48 262.78 563.29 217.45 578.26 208.44"
     fill="#01bf71"
     opacity="0.2"
     id="polygon41" />
  <polygon
     points="585.25 193.24 578.26 204.08 557.1 214.21 585.25 193.24"
     opacity="0.1"
     id="polygon43" />
  <path
     d="M637.17,293.1l-.81,2.61h-8.45l-.63-1.77a7.07,7.07,0,0,1,5.42-2A8.11,8.11,0,0,1,637.17,293.1Z"
     transform="translate(-48.43 -32.93)"
     opacity="0.1"
     id="path45" />
  <path
     d="M633.49,296.6v4.65c-.26,0-.52,0-.79,0a9.25,9.25,0,0,1-2.22-.26V296.6Z"
     transform="translate(-48.43 -32.93)"
     opacity="0.1"
     id="path47" />
  <ellipse
     cx="584.26"
     cy="263.67"
     rx="6.01"
     ry="3.57"
     fill="#dce2ed"
     id="ellipse49" />
  <path
     d="M410.26,387c-1.79.81-9.5,20.16-8,25.88S410.26,387,410.26,387Z"
     transform="translate(-48.43 -32.93)"
     opacity="0.1"
     id="path93" />
  <path
     d="M545.9,272.66c-2.33,2.66-3.11,6.35-3.22,9.89s.34,7.08.11,10.61c-.25,3.71-2,8.07-5.7,8.56"
     transform="translate(-48.43 -32.93)"
     opacity="0.1"
     id="path97" />
  <path
     d="M482.44,156.35A89.35,89.35,0,0,0,470,171.79a36.81,36.81,0,0,1-3.53,5c-2,2.18-4.54,3.73-6.82,5.59a32.1,32.1,0,0,0-10.87,17"
     transform="translate(-48.43 -32.93)"
     opacity="0.1"
     id="path99" />
  <path
     d="M302.78,55.93a22.21,22.21,0,0,0,4.41,5.9c1.56,1.48,3.34,2.74,4.75,4.36a34.56,34.56,0,0,1,3,4.48c3.62,5.79,8.17,10.94,12.71,16"
     transform="translate(-48.43 -32.93)"
     opacity="0.1"
     id="path101" />
  <path
     d="M386,155.35c-3,1.85-3.73,5.81-3.67,9.3s.66,7.13-.63,10.37c-.59,1.48-1.55,2.78-2.17,4.24-1.06,2.52-1.06,5.34-1,8.08.05,3.16.15,6.33.29,9.49.16,3.8.52,7.94,3.11,10.73"
     transform="translate(-48.43 -32.93)"
     opacity="0.1"
     id="path103" />
  <path
     d="M361.09,254a40.94,40.94,0,0,1,7.71,5.31,13.84,13.84,0,0,1,4.48,8c.17,1.33.08,2.69.38,4a12.62,12.62,0,0,0,2.63,4.83,66.42,66.42,0,0,0,6.51,7.21"
     transform="translate(-48.43 -32.93)"
     fill="none"
     id="path105" />
  <path
     d="M383.53,343.68a46.94,46.94,0,0,0-6.22-4.32,25.84,25.84,0,0,0-6.39-2.81c-3.43-.91-7-.77-10.56-1.14s-7.22-1.35-9.62-4"
     transform="translate(-48.43 -32.93)"
     opacity="0.1"
     id="path107" />
  <path
     d="M243.79,300.26c4.18.12,8.52.27,12.24,2.18,1.9,1,3.55,2.38,5.41,3.42a16.36,16.36,0,0,0,7.89,2.05"
     transform="translate(-48.43 -32.93)"
     opacity="0.1"
     id="path109" />
  <path
     d="M301.77,317.52c-.9-.7-2.26-.16-3,.7s-1.15,2-1.92,2.8c-1.53,1.65-4,1.84-6.27,1.92"
     transform="translate(-48.43 -32.93)"
     opacity="0.1"
     id="path111" />
  <path
     d="M325.68,228.69l4,2.11A71.08,71.08,0,0,1,341.55,238"
     transform="translate(-48.43 -32.93)"
     opacity="0.1"
     id="path113" />
  <path
     d="M371.6,268c2.64-.63,4.92,2.19,5.39,4.86s-.08,5.49.67,8.1a15.11,15.11,0,0,0,4,5.93"
     transform="translate(-48.43 -32.93)"
     opacity="0.1"
     id="path115" />
  <path
     d="M416.3,272.89c2.41,7.18-2.69,15-1.2,22.43.45,2.26,1.5,4.36,2,6.61,1.39,5.9-1,12.18-4.86,16.87"
     transform="translate(-48.43 -32.93)"
     opacity="0.1"
     id="path117" />
  <rect
     x="217.24"
     y="181.71"
     width="6.95"
     height="383.28"
     fill="#535f89"
     id="rect119"
     style="fill:#a8a8a8;fill-opacity:1" />
  <polygon
     points="187.74 119.97 214.16 107.32 253.11 116.63 222.88 93.79 187.74 119.97"
     fill="#01bf71"
     id="polygon129" />
  <polygon
     points="195.47 124.01 187.74 119.97 214.16 107.32 253.11 116.63 246.25 119.97 214.16 112.77 195.47 124.01"
     fill="#01bf71"
     id="polygon131" />
  <polygon
     points="195.47 124.01 187.74 119.97 214.16 107.32 253.11 116.63 246.25 119.97 214.16 112.77 195.47 124.01"
     opacity="0.1"
     id="polygon133" />
  <polygon
     points="194.42 121.03 215.68 180.59 226.22 180.59 245.9 117.34 214.16 109.96 194.42 121.03"
     fill="#01bf71"
     opacity="0.2"
     id="polygon135" />
  <polygon
     points="231.44 163.83 227.23 177.34 226.22 180.6 215.68 180.6 214.89 178.39 209.93 164.48 217.9 159.68 231.44 163.83"
     fill="#01bf71"
     id="polygon137" />
  <polygon
     points="214.16 112.77 219.19 180.59 215.68 180.59 195.47 124.01 214.16 112.77"
     fill="#01bf71"
     opacity="0.2"
     id="polygon139" />
  <polygon
     points="222.88 93.79 214.16 107.32 187.74 119.97 222.88 93.79"
     opacity="0.1"
     id="polygon141" />
  <path
     d="M275.67,210.27l-1,3.26H264.11l-.78-2.21c1.19-1.5,3.76-2.54,6.76-2.54A10.19,10.19,0,0,1,275.67,210.27Z"
     transform="translate(-48.43 -32.93)"
     opacity="0.1"
     id="path143" />
  <path
     d="M271.07,214.64v5.8c-.32,0-.65.05-1,.05a11.62,11.62,0,0,1-2.77-.33v-5.52Z"
     transform="translate(-48.43 -32.93)"
     opacity="0.1"
     id="path145" />
  <ellipse
     cx="221.65"
     cy="181.71"
     rx="7.5"
     ry="4.45"
     fill="#dce2ed"
     id="ellipse147" />
  <ellipse
     cx="526.06085"
     cy="526.89423"
     rx="16.82"
     ry="2.8399999"
     fill="#01bf71"
     opacity="0.1"
     id="ellipse149" />
  <path
     d="m 514.77081,513.68423 c 0,0 9.59,-0.3 12.48,-2.36 2.89,-2.06 14.76,-4.51 15.47,-1.21 0.71,3.3 14.42,16.42 3.59,16.51 -10.83,0.09 -25.17,-1.69 -28.05,-3.45 -2.88,-1.76 -3.49,-9.49 -3.49,-9.49 z"
     fill="#a8a8a8"
     id="path151" />
  <path
     d="m 546.50081,525.47423 c -10.83,0.09 -25.16,-1.69 -28,-3.45 -2.19,-1.34 -3.07,-6.14 -3.36,-8.35 h -0.32 c 0,0 0.6,7.73 3.49,9.49 2.89,1.76 17.22,3.53 28.05,3.45 3.13,0 4.2,-1.14 4.15,-2.79 -0.49,1.01 -1.68,1.63 -4.01,1.65 z"
     opacity="0.2"
     id="path153" />
  <ellipse
     cx="623.60083"
     cy="493.7742"
     rx="12.94"
     ry="2.1900001"
     fill="#01bf71"
     opacity="0.1"
     id="ellipse155" />
  <path
     d="m 614.91081,483.60423 c 0,0 7.38,-0.23 9.61,-1.81 2.23,-1.58 11.35,-3.48 11.9,-0.94 0.55,2.54 11.1,12.64 2.76,12.7 -8.34,0.06 -19.36,-1.29 -21.58,-2.65 -2.22,-1.36 -2.69,-7.3 -2.69,-7.3 z"
     fill="#a8a8a8"
     id="path157" />
  <path
     d="m 639.33081,492.67423 c -8.33,0.07 -19.36,-1.3 -21.58,-2.65 -1.69,-1 -2.37,-4.73 -2.59,-6.43 h -0.25 c 0,0 0.47,5.95 2.69,7.3 2.22,1.35 13.25,2.72 21.58,2.65 2.41,0 3.24,-0.87 3.19,-2.14 -0.33,0.78 -1.25,1.26 -3.04,1.27 z"
     opacity="0.2"
     id="path159" />
  <ellipse
     cx="786.64606"
     cy="606.85284"
     rx="30.889999"
     ry="5.2199998"
     fill="#01bf71"
     opacity="0.1"
     id="ellipse161" />
  <path
     d="m 765.90603,582.58284 c 0,0 17.62,-0.55 22.93,-4.33 5.31,-3.78 27.11,-8.3 28.43,-2.23 1.32,6.07 26.48,30.16 6.58,30.32 -19.9,0.16 -46.22,-3.09 -51.47,-6.32 -5.25,-3.23 -6.47,-17.44 -6.47,-17.44 z"
     fill="#a8a8a8"
     id="path163" />
  <path
     d="m 824.20603,604.23284 c -19.9,0.16 -46.23,-3.1 -51.53,-6.32 -4,-2.46 -5.64,-11.29 -6.18,-15.36 h -0.59 c 0,0 1.12,14.24 6.47,17.47 5.35,3.23 31.63,6.49 51.52,6.32 5.75,0 7.73,-2.08 7.62,-5.11 -0.85,1.79 -3.04,2.97 -7.31,3 z"
     opacity="0.2"
     id="path165" />
  <path
     d="M682.52,580.23s51.23-2.16,56.62-102.46-48-117.3-48-117.3-16.91-9.45-24.41-9.84-32.57,2-32.57,2l27.63-5.33s-38.88-14.8-50.53-16l42,8.88s.59-23.29-9.48-31c0,0,8.58-.64,13.16,16.13a32,32,0,0,0,19.19,21.54c15.6,6.09,37.16,15.69,42.07,23.91,0,0,9.08,9.48,7.69-15.2s-7.89-45.8-10.26-46.39c0,0-18.55-19.73-44.61-20.92,0,0,15.2-6.11,40.86,13,0,0,2.17-9.67-7.5-21.12s-24.67-35.53-41.06-38.09c0,0,22.9-1.39,41.06,28.22,0,0,6.71,4.34,7.3-6.71s4.54-24.87,4.54-24.87,5.53,25.46-6.12,36.91c0,0,22.31,29,21.32,61.59,0,0,6.91,14.8,9.48-2.57,0,0,1.48-23.92,4.45-44.21a60.13,60.13,0,0,0-12.6-46.36c-4.93-6.13-8.37-12.1-6.46-15.23l25.86,30.79s21.71-50.33,37.5-61.19,17.77-13.22,17.77-13.22L782,215l32-11.25-32,14.81s-14.8,12-23.29,45-9.28,53.49-9.28,53.49S795,281,803.72,282.14l-29.51,22.31a70.31,70.31,0,0,0-27.74,51.31h0s57-14.61,70.87-17.37l26-26.65L823.65,337l40.66-.59,23.3-16.58S869.25,335.23,871,336.22s28.63,2.17,28.63,2.17-68.3-.39-75.8,4.54-24.28,6.71-24.28,6.71L847.93,357l-57.64-4.15s-43.62,7.9-46,21.52c0,0,8.89,23.18,14.81,32.37,4.91,7.63,14.8,32.37,16.77,54.08s4.74,55.07-2.76,75.4-10.26,32-6.51,38.1,7.3,14-4.94,15.59-65.93-.79-65.93-.79S679.35,592.31,682.52,580.23Z"
     fill="#dea3a2"
     id="path167"
     transform="translate(-48.43 -32.93)" />
  <path
     d="M711.21,569.46a25.76,25.76,0,0,1,17.39-2.17c10,2.17,25.45,1,26.85.78"
     opacity="0.1"
     id="path169"
     transform="translate(-48.43 -32.93)" />
  <path
     d="M743.37,451.26s2.44,38.59-1.9,46.19Z"
     transform="translate(-48.43 -32.93)"
     opacity="0.1"
     id="path171" />
  <path
     d="M752.39,497.45s-3.13,36.14-5.3,43.21S752.39,497.45,752.39,497.45Z"
     transform="translate(-48.43 -32.93)"
     opacity="0.1"
     id="path173" />
  <path
     d="M755.45,408.6c2.22.82,11.73,20.11,9.83,25.81S755.45,408.6,755.45,408.6Z"
     transform="translate(-48.43 -32.93)"
     opacity="0.1"
     id="path175" />
  <path
     d="M731.34,388.58c1,.46,5.46,11.58,4.57,14.86S731.34,388.58,731.34,388.58Z"
     transform="translate(-48.43 -32.93)"
     opacity="0.1"
     id="path177" />
  <path
     d="M772.52,453.37c-1.1,11.21-1.7,18.54-1,27.51a105.41,105.41,0,0,1-.3,20.92"
     transform="translate(-48.43 -32.93)"
     opacity="0.1"
     id="path179" />
  <path
     d="M653.43,322.91a9,9,0,0,1,1.86,5.68c.07,2-.2,4.06-.07,6.09s1.16,4.63,3.28,4.92"
     transform="translate(-48.43 -32.93)"
     opacity="0.1"
     id="path181" />
  <path
     d="M689.89,256.1A51.22,51.22,0,0,1,697,265a20.84,20.84,0,0,0,2,2.89,33,33,0,0,0,3.92,3.21,18.46,18.46,0,0,1,6.24,9.79"
     transform="translate(-48.43 -32.93)"
     opacity="0.1"
     id="path183" />
  <path
     d="M793.07,198.43a12.94,12.94,0,0,1-2.53,3.39c-.9.85-1.92,1.57-2.73,2.5a19.71,19.71,0,0,0-1.75,2.57,69.5,69.5,0,0,1-7.29,9.22"
     transform="translate(-48.43 -32.93)"
     opacity="0.1"
     id="path185" />
  <path
     d="M745.28,255.53c1.71,1.06,2.15,3.34,2.11,5.34s-.38,4.1.37,6c.34.85.89,1.6,1.24,2.44a11.44,11.44,0,0,1,.59,4.63c0,1.82-.09,3.64-.17,5.45-.09,2.19-.3,4.56-1.78,6.17"
     transform="translate(-48.43 -32.93)"
     opacity="0.1"
     id="path187" />
  <path
     d="M759.58,312.16a23.72,23.72,0,0,0-4.43,3,7.94,7.94,0,0,0-2.57,4.62c-.1.76-.05,1.54-.22,2.29a7.3,7.3,0,0,1-1.51,2.77,37.58,37.58,0,0,1-3.74,4.14"
     transform="translate(-48.43 -32.93)"
     fill="none"
     id="path189" />
  <path
     d="M746.69,363.7a28.1,28.1,0,0,1,3.57-2.48,15.1,15.1,0,0,1,3.68-1.62A39.55,39.55,0,0,1,760,359a8.59,8.59,0,0,0,5.53-2.27"
     transform="translate(-48.43 -32.93)"
     opacity="0.1"
     id="path191" />
  <path
     d="M827,338.76c-2.4.07-4.89.15-7,1.25-1.09.56-2,1.37-3.11,2a9.33,9.33,0,0,1-4.53,1.18"
     transform="translate(-48.43 -32.93)"
     opacity="0.1"
     id="path193" />
  <path
     d="M793.65,348.67a1.35,1.35,0,0,1,1.73.4c.43.49.66,1.13,1.11,1.61.87.95,2.3,1.06,3.59,1.1"
     transform="translate(-48.43 -32.93)"
     opacity="0.1"
     id="path195" />
  <path
     d="M779.92,297.66l-2.31,1.2a40.93,40.93,0,0,0-6.8,4.15"
     transform="translate(-48.43 -32.93)"
     opacity="0.1"
     id="path197" />
  <path
     d="M753.55,320.22c-1.52-.36-2.83,1.26-3.1,2.8s0,3.15-.39,4.65a8.7,8.7,0,0,1-2.27,3.41"
     transform="translate(-48.43 -32.93)"
     opacity="0.1"
     id="path199" />
  <path
     d="M727.87,323c-1.38,4.12,1.55,8.62.69,12.88-.26,1.3-.86,2.51-1.17,3.8-.8,3.39.58,7,2.79,9.69"
     transform="translate(-48.43 -32.93)"
     opacity="0.1"
     id="path201" />
  <rect
     x="725.73"
     y="364.93"
     width="12.68"
     height="17.86"
     fill="#dce0ed"
     id="rect205" />
  <g
     id="g55"
     transform="translate(1730.1945,59.425209)">
    <g
       id="g438"
       transform="translate(-1646.9814,-43.770091)">
      <ellipse
         cx="-268.07602"
         cy="790.27606"
         rx="93.68"
         ry="9.5500002"
         fill="#2ecc71"
         opacity="0.1"
         id="ellipse35"
         transform="scale(-1,1)"
         style="stroke-width:1" />
      <ellipse
         cx="48.734192"
         cy="602.20483"
         rx="40.209999"
         ry="6.8000002"
         fill="#2ecc71"
         id="ellipse43"
         style="fill:#01bf71;fill-opacity:1" />
      <path
         d="m 65.354306,591.07487 a 11.63,11.63 0 0 0 3.84,-5.78 c 0.49,-2.3 -0.49,-5 -2.68,-5.89 -2.46,-0.95 -5.09,0.76 -7.08,2.48 -1.99,1.72 -4.28,3.69 -6.89,3.32 a 10.47,10.47 0 0 0 3.21,-9.81 4,4 0 0 0 -0.9,-2 c -1.36,-1.46 -3.84,-0.83 -5.48,0.32 -5.2,3.66 -6.65,10.72 -6.67,17.08 -0.53,-2.3 -0.09,-4.69 -0.1,-7 -0.01,-2.31 -0.66,-5 -2.64,-6.22 a 8,8 0 0 0 -4,-0.95 c -2.34,-0.08 -4.94,0.15 -6.54,1.86 -2,2.12 -1.47,5.69 0.26,8 1.73,2.31 4.35,3.8 6.76,5.42 a 14.92,14.92 0 0 1 4.84,4.61 4.41,4.41 0 0 1 0.36,0.82 h 14.65 a 40.77,40.77 0 0 0 9.06,-6.26 z"
         fill="#2ecc71"
         id="path45-5"
         style="fill:#01bf71;fill-opacity:1" />
      <path
         d="m 364.54775,616.29909 c -4.54,0.59 -9.25,1 -13.6,-0.46 -0.67,-0.21 -1.44,-0.67 -1.35,-1.36 a 1.6,1.6 0 0 1 0.31,-0.66 42.41,42.41 0 0 0 4.13,-7.83 0.63999999,0.64 0 0 1 0.25,-0.35 0.60999999,0.61 0 0 1 0.44,0 c 2.0001,0.52 3.74,1.82 5.7401,2.37 a 8.1999999,8.2 0 0 0 3.1199,0.24 c 0.9001,-0.1 2.14,-0.85 2.9501,-0.76 -0.5,2.97 -1.6401,5.78 -1.9901,8.81 z"
         fill="#2ecc71"
         id="path81"
         style="fill:#01bf71;stroke-width:1;fill-opacity:1" />
      <path
         d="m 278.61785,608.68909 c -3,-2 -6.1001,-4.22 -7.87,-7.39 a 1.21,1.21 0 0 1 -0.2101,-0.63 1.3,1.3 0 0 1 0.25,-0.62 25.619999,25.62 0 0 1 6.3901,-6.9 18.89,18.89 0 0 1 3.57,3.29 c 0.7499,0.79 2.83,2.09 2.8499,3.27 0,0.71 -0.7899,1.48 -1.16,2 -0.4999,0.74 -0.9999,1.5 -1.4299,2.26 -0.2301,0.46 -2.6101,4.6 -2.39,4.72 z"
         fill="#2ecc71"
         id="path83"
         style="fill:#01bf71;stroke-width:1;fill-opacity:1" />
      <path
         d="m 346.74775,625.47909 a 3,3 0 0 0 0.54,2 2.67,2.67 0 0 0 1.1501,0.67 c 6.3599,2.27 13.68,-0.57 20,1.68 1.3099,0.46 2.54,1.12 3.85,1.56 a 20.85,20.85 0 0 0 4.77,0.85 c 2.2499,0.22 4.4999,0.35 6.75,0.41 a 16.33,16.33 0 0 0 5.0799,-0.44 6.15,6.15 0 0 0 3.9001,-3.09 3,3 0 0 0 0.1899,-2.2 2.4899999,2.49 0 0 0 -0.41,-0.71 6.0899999,6.09 0 0 0 -1.4999,-1.21 l -2.3401,-1.51 a 15.63,15.63 0 0 0 -3.5399,-1.88 c -0.9201,-0.3 -1.91,-0.43 -2.84,-0.7 -3.2901,-1 -5.79,-3.57 -8.12,-6.07 l -3.1801,-3.39 a 3.1099999,3.11 0 0 0 -1.0999,-0.88 3,3 0 0 0 -1.36,-0.14 18.369999,18.37 0 0 0 -8.6701,2.92 12.51,12.51 0 0 1 -2.14,1.26 7.6399999,7.64 0 0 1 -5.9999,-0.75 c -0.8201,-0.43 -0.6401,-0.7 -1.0001,-1.47 -0.36,-0.77 -1.18,-1.27 -1.9,-0.56 a 2.0899999,2.09 0 0 0 -0.4499,0.86 c -0.7,2.27 -0.43,4.7 -0.43,7.07 a 3.1399999,3.14 0 0 1 -0.1401,1.1 6.6899999,6.69 0 0 1 -0.6199,1 1.58,1.58 0 0 0 -0.1301,0.26 6.9399999,6.94 0 0 0 -0.36,3.36 z"
         fill="#514e7f"
         id="path85"
         style="stroke-width:1;fill:#282828;fill-opacity:1" />
      <path
         d="m 346.74775,625.47909 a 3,3 0 0 0 0.54,2 2.67,2.67 0 0 0 1.1501,0.67 c 6.3599,2.27 13.68,-0.57 20,1.68 1.3099,0.46 2.54,1.12 3.85,1.56 a 20.85,20.85 0 0 0 4.77,0.85 c 2.2499,0.22 4.4999,0.35 6.75,0.41 a 16.33,16.33 0 0 0 5.0799,-0.44 6.15,6.15 0 0 0 3.9001,-3.09 3,3 0 0 0 0.1899,-2.2 2.4899999,2.49 0 0 0 -0.41,-0.71 c -0.3799,0.78 -0.6499,1.8 -0.88,2.17 a 4.4399999,4.44 0 0 1 -2.9999,2.15 7.6099999,7.61 0 0 1 -2.7101,-0.35 c -5.7599,-1.43 -11.88,-1.45 -17.3999,-3.61 a 41.569999,41.57 0 0 0 -5.7,-2.19 45.279999,45.28 0 0 0 -6.16,-0.5 c -3.25,-0.26 -6.39,-1.24 -9.6001,-1.75 a 6.9399999,6.94 0 0 0 -0.37,3.35 z"
         fill="#464353"
         id="path87"
         style="stroke-width:1;fill:#01bf71;fill-opacity:1" />
      <path
         d="m 264.09785,608.29909 c 0.2999,2.41 1.8299,4.49 3.51,6.25 a 40.069999,40.07 0 0 1 4.8999,5.37 c 1.6601,2.52 2.39,5.63 4.53,7.76 a 12.27,12.27 0 0 0 2.72,2 18.8,18.8 0 0 0 3.53,1.62 c 3.1901,1 6.63,0.79 10,0.55 a 8.8899999,8.89 0 0 0 3.16,-0.62 9.1799999,9.18 0 0 0 1.34,-0.81 6.3599999,6.36 0 0 0 2.0001,-2.07 2.0799999,2.08 0 0 0 0.19,-1.49 3.3999999,3.4 0 0 0 -1.0001,-1.46 22.6,22.6 0 0 0 -2.4099,-2.17 14.31,14.31 0 0 1 -3.1401,-2.76 8.9999999,9 0 0 1 -1.2099,-2.76 24.73,24.73 0 0 1 -0.88,-5.25 16.54,16.54 0 0 0 -0.3701,-3.51 c -0.51,-1.8 -1.8499,-3.43 -1.6899,-5.3 a 1.36,1.36 0 0 0 -0.07,-0.8 1.25,1.25 0 0 0 -0.63,-0.39 11.4,11.4 0 0 0 -3.2799,-0.75 3.7799999,3.78 0 0 0 -3,1.19 c -0.4701,0.56 -0.77,1.34 -1.46,1.59 a 2.4199999,2.42 0 0 1 -1.0001,0 c -1.68,-0.17 -3.47,-0.38 -4.76,-1.47 a 5.9999999,6 0 0 1 -1.9999,-4.37 c 0,-0.62 0.2799,-1.27 -0.6701,-1.4 -0.73,-0.1 -1.2999,0.66 -1.67,1.16 a 16.319999,16.32 0 0 0 -3.2099,5.85 1.62,1.62 0 0 0 -0.61,-0.12 2.61,2.61 0 0 0 -2.1801,1.12 4.3199999,4.32 0 0 0 -0.6399,3.04 z"
         fill="#514e7f"
         id="path89"
         style="stroke-width:1;fill:#282828;fill-opacity:1" />
      <path
         d="m 264.09785,608.29909 c 0.2999,2.41 1.8299,4.49 3.51,6.25 a 40.069999,40.07 0 0 1 4.8999,5.37 c 1.6601,2.52 2.39,5.63 4.53,7.76 a 12.27,12.27 0 0 0 2.72,2 18.8,18.8 0 0 0 3.53,1.62 c 3.1901,1 6.63,0.79 10,0.55 a 8.8899999,8.89 0 0 0 3.16,-0.62 9.1799999,9.18 0 0 0 1.34,-0.81 6.3599999,6.36 0 0 0 2.0001,-2.07 4.87,4.87 0 0 0 -2.0601,-0.49 c -1.4899,0.08 -2.57,1.48 -3.9999,1.91 -2.0001,0.61 -4,-0.82 -6.0901,-1.31 -1.3399,-0.31 -2.76,-0.22 -4.0699,-0.65 a 10.05,10.05 0 0 1 -3,-1.82 15.23,15.23 0 0 1 -3.2101,-3.1 19.76,19.76 0 0 1 -1.8899,-3.76 53.709999,53.71 0 0 0 -3.8101,-7.29 4.84,4.84 0 0 0 -0.78,-1 c -0.3099,-0.29 -0.6999,-0.5 -1,-0.76 -1.37,-1 -1.9399,-2.77 -2.42,-4.41 a 7.3799999,7.38 0 0 0 -0.5399,-1.47 2.61,2.61 0 0 0 -2.1801,1.12 4.3199999,4.32 0 0 0 -0.6399,2.98 z"
         fill="#464353"
         id="path91"
         style="stroke-width:1;fill:#01bf71;fill-opacity:1" />
      <path
         d="m 407.75775,394.68909 a 14.52,14.52 0 0 0 -4.08,4.77 c -0.9999,1.88 -6.49,16.48 -6.17,18.57 -1.8,-1.82 -8.9399,-2.12 -10.7299,-3.93 -0.76,-0.76 -4.87,-4.56 -5.4801,-5.44 -0.61,-0.88 -5.1899,-2.77 -5.6899,-3.67 -1.87,-3.35 13.2599,-16 11.3299,-19.36 a 0.81999999,0.82 0 0 1 -0.1599,-0.52 0.79999999,0.8 0 0 1 0.2499,-0.4 24.08,24.08 0 0 1 4.3801,-3 6.9999999,7 0 0 0 3.34,-4 14.37,14.37 0 0 1 3.8699,2.62 q 4.1501,3.55 8.1801,7.28 c 1.0599,1 3.08,2.27 3.57,3.66 0.4899,1.39 -1.6,2.6 -2.6101,3.42 z"
         fill="#a1616a"
         id="path93-3"
         style="stroke-width:1" />
      <path
         d="m 383.26775,389.29909 a 43.839999,43.84 0 0 1 6.48,5.3 c 1.88,1.85 3.66,4 4.1301,6.61 0.19,1 0.16,2.06 0.3199,3.09 0.67,4.48 4.5601,7.77 6.2701,12 a 20.52,20.52 0 0 1 1.1,4 47.15,47.15 0 0 1 0.78,7.86 c 0,2.56 -2.4601,4.32 -3.3801,6.71 a 40.699999,40.7 0 0 0 -1.63,7.27 88.579998,88.58 0 0 1 -4.09,13.5 c -3.3799,9.33 -14.3299,35.13 -17.71,44.47 -10.3499,-2.6 -37.91,-8.57 -47.07,-14 -3.06,-1.82 21.2,-22.38 17.93,-23.8 a 1.65,1.65 0 0 1 -0.91,-0.69 1.58,1.58 0 0 1 0,-1 c 3.26,-14.29 13.49,-26 18.12,-40 1.61,-4.83 4.5,-8.95 6.7001,-13.55 1.9999,-4.16 3.05,-8.75 5.4199,-12.7 a 8.4899999,8.49 0 0 1 1.73,-2.17 10.61,10.61 0 0 1 1.9201,-1.15 c 1.3099,-0.7 2.5699,-1.09 3.8899,-1.75 z"
         fill="#514e7f"
         id="path95"
         style="stroke-width:1;fill:#282828;fill-opacity:1" />
      <circle
         cx="-407.20773"
         cy="376.8591"
         fill="#a1616a"
         id="circle97"
         transform="scale(-1,1)"
         style="stroke-width:1"
         r="16.200001" />
      <path
         d="m 390.72785,384.46909 a 5.4299999,5.43 0 0 0 -6.09,-0.87 3,3 0 0 0 -1.8101,2.92 l -7.9999,0.12 a 16.74,16.74 0 0 0 -3.8101,0.35 5.5399999,5.54 0 0 0 -3.1799,2 c -0.1001,0.13 -0.2101,0.28 -0.37,0.31 a 0.63999999,0.64 0 0 1 -0.3701,-0.13 7.0499999,7.05 0 0 0 -4,-0.72 c -4.3399,0.28 -8.3599,2.46 -11.7599,5.17 a 3.81,3.81 0 0 0 -1.4001,1.71 c -0.28,0.91 0,2.08 -0.6599,2.7 0,7.55 -2.5901,14.58 -4.3201,21.93 -0.2999,1.31 -1.5599,2.46 -2.4299,3.49 a 14,14 0 0 0 -2.6001,3.88 c -1.46,3.81 0.5601,8.28 -0.87,12.11 a 19.5,19.5 0 0 1 -2.7599,4.35 11.21,11.21 0 0 0 -2.3501,5.62 c -0.06,0.92 0.06,1.84 0,2.77 a 16.88,16.88 0 0 1 -0.6599,3.64 c -0.58,2.21 -1.2,4.42 -1.8401,6.62 -1,3.56 -2.3999,7.41 -5.5899,9.31 7.71,1.31 15.83,2.58 23.18,-0.09 a 12,12 0 0 0 2.89,-1.45 c 2.65,-1.89 3.93,-5.13 5.0699,-8.18 1.28,-3.43 2.58,-6.91 2.84,-10.56 a 12.08,12.08 0 0 1 0.4801,-3.45 c 0.75,-2 2.73,-3.19 4.5499,-4.29 a 21.89,21.89 0 0 0 5.47,-4.26 8.4999999,8.5 0 0 0 2.22,-6.4 c -0.1399,-1.13 -0.58,-2.22 -0.6299,-3.36 a 2.6899999,2.69 0 0 1 1.5599,-2.77 c 5.6101,-1.7 8.29,-8.34 9.5401,-14.07 a 44.889999,44.89 0 0 0 0.7199,-9 l 0.07,-5.79 a 7.6799999,7.68 0 0 0 2.5199,-5.54 6.2199999,6.22 0 0 1 0,-1.83 5.13,5.13 0 0 1 1.28,-2 16.9,16.9 0 0 0 3.1101,-4.24 z"
         fill="#464353"
         id="path99-5"
         style="stroke-width:1;fill:#282828;fill-opacity:1" />
      <path
         d="m 407.98785,402.99909 c 0.18,1.81 -0.2301,3.66 0.18,5.44 0.16,0.68 0.43,1.33 0.6299,2 a 11.8,11.8 0 0 1 -0.75,7.62 42.349999,42.35 0 0 1 -3.8899,6.75 10.28,10.28 0 0 0 -1.2501,2.33 12.07,12.07 0 0 0 -0.4799,2.67 81.319999,81.32 0 0 1 -1.9101,10.74 c -0.76,3.08 -1.7499,6.19 -3.78,8.63 a 2.62,2.62 0 0 1 -1.5599,1.06 2.8199999,2.82 0 0 1 -1.3301,-0.28 l -4.1399,-1.57 a 2.89,2.89 0 0 1 -1.0001,-0.52 2.51,2.51 0 0 1 -0.58,-1.62 c -0.2899,-3.34 0.7101,-6.65 1.8201,-9.81 3.36,-9.54 7.8199,-18.73 10,-28.6 0.61,-2.76 0.93,-7 2.9399,-9.15 0.8301,-0.9 0.5501,-0.52 1.54,0 a 12.54,12.54 0 0 1 1.45,0.77 4.7499999,4.75 0 0 1 2.1101,3.54 z"
         fill="#464353"
         id="path101-6"
         style="stroke-width:1;fill:#282828;fill-opacity:1" />
      <path
         d="M 328.91775,462.36909"
         fill="#464353"
         id="path103-2"
         style="stroke-width:1" />
      <path
         d="m 395.50785,421.09909 q -1.6501,8.73 -3.3701,17.47 l -16.08,-4.22 c -0.1299,-1.68 0.77,-3.24 1.39,-4.81 1.4701,-3.68 1.5001,-7.77 2.6901,-11.55 0.8999,-2.88 2.46,-5.53 3.2999,-8.43 0.49,-1.68 0.73,-3.44 1.2101,-5.13 a 39.189999,39.19 0 0 1 1.89,-4.89 31.16,31.16 0 0 1 3.51,-6.51 c 2.06,0.77 4.25,1.66 5.4199,3.51 a 7.4599998,7.46 0 0 1 1.0001,3.46 c 0.2799,3.62 -1.0001,7.25 -0.5901,10.83 a 32,32 0 0 1 -0.3699,10.27 z"
         fill="#2ecc71"
         id="path105-9"
         style="fill:#01bf71;stroke-width:1;fill-opacity:1" />
      <path
         d="m 375.78785,498.68909 c -0.9001,3.44 0.41,7 1.4699,10.42 a 80.919999,80.92 0 0 1 3.2801,15.69 13,13 0 0 0 0.8099,4 37.42,37.42 0 0 0 1.9501,3.2 c 1.62,2.86 1.5799,6.36 1.2299,9.63 -0.2299,2.16 -0.58,4.31 -0.9999,6.44 -0.5301,2.59 -1.18,5.31 -0.42,7.84 -1.27,-0.28 -2.14,1.36 -2.0901,2.67 0.05,1.31 0.51,2.71 -0.1102,3.86 -1.58,0.57 -1.6,2.74 -1.55,4.41 a 37.19,37.19 0 0 1 -1.0899,8.64 q -3.5802,17.19 -7.6002,34.29 c -5.7899,1.8 -12.5499,3.67 -18.0699,1.18 a 3.55,3.55 0 0 1 -2.29,-2.3 4.14,4.14 0 0 1 0.22,-1.77 l 2.6201,-9.52 a 17.529999,17.53 0 0 0 0.9398,-7 c -0.2598,-1.77 -0.9999,-3.67 -0.1599,-5.22 0.3,-0.53 0.7599,-1 1.0999,-1.46 1.3801,-2 0.6601,-4.69 0.5401,-7.13 a 5.5799999,5.58 0 0 1 0.1202,-1.63 8.5599999,8.56 0 0 1 0.77,-1.79 27.329999,27.33 0 0 0 3,-13.6 3.3399999,3.34 0 0 1 0.2399,-1.78 4.0799999,4.08 0 0 0 0.4401,-0.72 1.93,1.93 0 0 0 -0.1401,-1.31 11.38,11.38 0 0 0 2.1101,-2 3,3 0 0 1 -0.5001,-4.62 1.54,1.54 0 0 1 -0.74,-2.65 c 0.34,-0.24 0.78,-0.34 1,-0.68 0.37,-0.5 0.07,-1.21 -0.23,-1.75 l -1.6,-2.89 c -1.19,-2.14 -1.46,-4.79 -2.74,-6.88 a 51.619999,51.62 0 0 1 -4.22,-9.63 l -4.5599,-12.7 -3.1001,2.69 a 9.7099998,9.71 0 0 0 -2.55,2.91 12.28,12.28 0 0 0 -0.82,3.48 c -1.1399,6.9 -5.4899,12.88 -7.1,19.69 a 13.27,13.27 0 0 1 -1.4599,4.4 9.5199999,9.52 0 0 0 -0.8401,1.26 6.6399999,6.64 0 0 0 -0.3499,2.09 9.7399998,9.74 0 0 1 -4.11,7 c -1.5201,1 -3.4501,1.77 -4.2501,3.43 a 6.77,6.77 0 0 1 -0.6999,1.46 c -0.7401,0.89 -2.3401,1 -2.66,2.11 -0.17,0.63 0.1599,1.37 -0.2001,1.92 a 1.7499999,1.75 0 0 1 -0.75,0.56 l -4.47,2.24 c -4.9999,2.49 -7.52,8.2 -11.21,12.39 a 25.73,25.73 0 0 0 -3.3499,4.44 c -1.5901,2.84 -2.33,6.41 -5.0001,8.24 a 7.7699998,7.77 0 0 0 -1.9399,1.44 c -0.85,1.11 -0.5401,2.67 -0.6101,4.07 -0.07,1.4 -1.15,3.06 -2.48,2.64 a 9.6499998,9.65 0 0 1 0,5.17 26.06,26.06 0 0 1 -15.8,-6.4 c -1.3,-1.14 -2.5599,-2.59 -2.57,-4.31 a 1.67,1.67 0 0 1 0.1901,-0.86 2.34,2.34 0 0 1 0.9999,-0.76 c 4.17,-2.26 5.43,-7.5 7.52,-11.76 1.85,-3.75 4.57,-7 6.88,-10.48 5,-7.5 8.34,-16.57 15.85,-21.53 1.6501,-1.09 3.57,-2.06 4.3901,-3.86 a 30.79,30.79 0 0 0 0.8799,-3.2 2.6899999,2.69 0 0 1 2.3501,-2 14.27,14.27 0 0 1 -0.5401,-5 6.2199999,6.22 0 0 1 0.25,-2.15 10.16,10.16 0 0 1 1.1,-2.12 20.55,20.55 0 0 0 2.83,-11 c -0.06,-2 -0.41,-4 0.19,-5.91 0.3,-1 0.82,-1.83 1.19,-2.76 a 17.21,17.21 0 0 0 0.86,-5.15 l 0.41,-6.59 a 31.55,31.55 0 0 1 0.85,-6.51 c 1.39,-5.11 2.72,-26.52 7.43,-28.93 4.71,-2.41 12.75,14.06 18.0001,14.39 a 23.999999,24 0 0 1 6.8799,1.32 c 3.51,1.32 6.46,3.78 9.33,6.19 l 9.72,8.16 a 35.419999,35.42 0 0 0 6.0301,4.35 z"
         fill="#464353"
         id="path107-1"
         style="stroke-width:1;fill:#282828;fill-opacity:1" />
      <path
         d="m 422.41785,358.86909 a 12.22,12.22 0 0 0 -9.4301,-4.6 22,22 0 0 0 -10.42,2.62 13.43,13.43 0 0 1 -3,1.25 c -1.72,0.35 -3.6199,-0.12 -5.1699,0.7 -2.06,1.09 -2.4501,3.87 -2.2701,6.19 0.18,2.32 0.61,4.86 -0.6199,6.85 a 19,19 0 0 0 -1.1901,1.78 5.9399999,5.94 0 0 0 0.1101,3.81 30.599999,30.6 0 0 0 2.0001,-2.51 c 0.7199,-0.79 1.95,-1.33 2.83,-0.74 0.8799,0.59 0.8799,1.68 0.92,2.65 0.04,0.97 0.2999,2.14 1.22,2.46 a 2,2 0 0 0 1.9999,-0.8 c 1.5701,-1.92 0.94,-5 2.4901,-6.92 0.89,-1.1 2.3599,-1.63 3.18,-2.78 0.6399,-0.9 0.8,-2.07 1.36,-3 0.5599,-0.93 1.87,-1.69 2.75,-1 a 3.7399999,3.74 0 0 1 0.7299,1 4.21,4.21 0 0 0 5.0001,1.5 8.7699998,8.77 0 0 1 2.1699,-0.93 2.67,2.67 0 0 1 2.47,1.34 5.3199999,5.32 0 0 1 0.6501,2.86 c 0,1.35 -0.24,2.83 0.5399,3.93 a 4.0599999,4.06 0 0 0 1.1601,1 c 1.1499,0.73 2.72,1.22 3.7999,0.39 a 2.86,2.86 0 0 0 0.85,-2.66 21.879999,21.88 0 0 0 -0.8099,-2.81 c -0.6,-2.12 0.18,-4.51 -0.48,-6.51 a 20.489999,20.49 0 0 0 -2.84,-5.07 z"
         fill="#464353"
         id="path109-2"
         style="stroke-width:1;fill:#282828;fill-opacity:1" />
      <path
         d="m 413.73775,407.19909 a 2.5,2.5 0 0 1 -0.15,1.49 2.4199999,2.42 0 0 1 -0.8099,0.78 16.78,16.78 0 0 1 -7.6401,2.47 2.3,2.3 0 0 0 -0.9999,0.27 1.89,1.89 0 0 0 -0.4501,2.13 5.6699999,5.67 0 0 1 0.48,2.26 c -0.1999,1.43 -1.8899,2.08 -3.33,2.26 a 7.7199999,7.72 0 0 1 -5.79,-1.12 8.9299999,8.93 0 0 1 -2.39,-3.59 c -3.93,-9 -5.31,-19 -9.2899,-28 a 5.6899999,5.69 0 0 1 -0.6,-1.87 1.86,1.86 0 0 1 0.7399,-1.73 c 0.7401,-0.46 1.89,-0.2 2.39,-0.91 0.25,-0.37 0.2201,-0.86 0.44,-1.24 0.4601,-0.82 1.6601,-0.72 2.4901,-1.16 0.6399,-0.35 1.0899,-1 1.8,-1.19 a 2.3,2.3 0 0 1 1.88,0.81 c 2.33,2.18 3.5599,5.27 4.8599,8.19 a 97.269998,97.27 0 0 0 7,12.91 c -0.3099,-0.48 1.4801,-4.13 2.1801,-4.27 1.2199,-0.25 2.8,1.9 3.4599,2.71 a 17.159999,17.16 0 0 1 3.73,8.8 z"
         fill="#2ecc71"
         id="path111-7"
         style="fill:#01bf71;stroke-width:1;fill-opacity:1" />
      <rect
         x="-405.55771"
         y="419.99911"
         width="78.029999"
         height="78.029999"
         fill="#ffffff"
         id="rect113"
         transform="scale(-1,1)"
         style="stroke-width:1" />
      <path
         d="m 328.15785,462.97909 a 31.53,31.53 0 0 1 3.7,3.88 7.7299999,7.73 0 0 1 1.7,5 2.57,2.57 0 0 1 -0.4801,1.46 1.25,1.25 0 0 1 -1.3899,0.43 2,2 0 0 1 -0.68,-0.61 32,32 0 0 0 -2.3,-2.5 c -0.3001,-0.29 -0.6801,-0.6 -1.0801,-0.49 a 1.14,1.14 0 0 0 -0.4699,0.31 3.18,3.18 0 0 0 -1.0001,1.51 3.58,3.58 0 0 0 1.0601,2.91 7.5399999,7.54 0 0 1 1.7899,2.65 1.13,1.13 0 0 1 0,0.85 1.39,1.39 0 0 1 -0.53,0.46 7.7199999,7.72 0 0 1 -6.4699,0.42 c -1.3901,-0.55 -2.5901,-1.51 -4,-2 a 9.6099999,9.61 0 0 1 -1.7701,-0.66 3.6399999,3.64 0 0 1 -1.5699,-2.34 9.9999998,10 0 0 1 -0.1102,-2.89 33,33 0 0 1 2.41,-10.9 1.3,1.3 0 0 1 0.39,-0.58 1.37,1.37 0 0 1 0.6601,-0.19 c 1.7499,-0.18 4.6299,-1.08 6.32,-0.43 a 4.3199999,4.32 0 0 1 1.4899,1.33 c 0.3901,0.35 2.33,1.92 2.33,2.38 z"
         fill="#a1616a"
         id="path115-0"
         style="stroke-width:1" />
      <path
         d="m 328.75785,461.42909 c 0,-1.68 2.08,-5.71 -1.2101,-6 0,-1.78 2.53,-2.9 2.0701,-4.78 -0.16,-0.64 -0.67,-1.15 -0.75,-1.79 -0.2101,-1.83 3.0899,-2.82 2.55,-4.58 -0.2001,-0.67 -0.93,-1.08 -1.09,-1.76 -0.37,-1.58 2.46,-2.29 2.5099,-3.91 0,-0.55 -0.2999,-1.07 -0.28,-1.61 0,-0.69 0.6,-1.21 0.9301,-1.8 0.85,-1.53 0.4399,-3.9 1.9999,-4.68 -0.9999,0.08 -1.39,-1.45 -0.95,-2.39 0.44,-0.94 1.3,-1.75 1.3,-2.79 a 4.4299999,4.43 0 0 1 0,-1.15 c 0.2901,-1 1.93,-1.07 2.2,-2.07 a 10.67,10.67 0 0 0 0,-1.13 c 0.1002,-0.78 0.9001,-1.26 1.65,-1.49 a 6.5599999,6.56 0 0 0 2.2,-0.78 c 0.4801,-0.37 1.0001,-1 1.55,-0.65 0.1901,0.11 0.2901,0.33 0.44,0.5 0.6101,0.71 1.78,0.4 2.56,-0.13 2.29,-1.55 3.42,-4.34 3.92,-7.06 0.5,-2.72 0.4701,-5.53 1.0701,-8.23 a 18.85,18.85 0 0 1 0.7299,-2.46 12.73,12.73 0 0 0 1.1601,-2.46 c 0.1202,-1.57 -3.1401,-0.5 -4.38,-0.34 a 19.44,19.44 0 0 0 -3.5601,0.67 37.65,37.65 0 0 0 -3.6299,1.59 c -5.0001,2.19 -10.92,2.46 -14.9001,6.13 -1.3099,1.21 -2.41,2.79 -4.1,3.33 a 20.929999,20.93 0 0 0 -2.3,0.6 c -1.89,0.89 -2.1799,3.39 -3.2099,5.2 a 11.11,11.11 0 0 0 -0.85,1.5 5.9099999,5.91 0 0 0 -0.27,1.92 l -0.14,4.75 c -0.2301,8 -0.4701,15.93 0.3799,23.84 0.2801,2.6 0.67,5.29 -0.09,7.8 -0.2,0.68 -0.49,1.33 -0.66,2 a 13.619999,13.62 0 0 0 -0.26,2.47 l -0.1101,3.07 a 0.99999998,1 0 0 0 0.1499,0.71 0.99999998,1 0 0 0 0.8301,0.2 c 4.2899,-0.38 8.61,-2.8 12.6601,-1.34"
         fill="#464353"
         id="path117-9"
         style="stroke-width:1;fill:#282828;fill-opacity:1" />
      <path
         d="m 408.49785,448.89909 a 1.32,1.32 0 0 1 0.4799,0.4 3.4099999,3.41 0 0 1 0,4.06 1.37,1.37 0 0 0 -0.2399,0.4 1.18,1.18 0 0 0 0.1201,0.68 2.25,2.25 0 0 1 -0.31,2.52 c -0.31,0.26 -0.73,0.39 -0.93,0.73 -0.35,0.58 0.1399,1.32 0.06,2 -0.1002,0.89 -1.15,1.33 -2,1.44 a 2.1299999,2.13 0 0 1 -1.9499,-0.52 1.62,1.62 0 0 1 0,-1.77 4.7399999,4.74 0 0 1 1.3199,-1.32 2,2 0 0 1 -1.89,-1.83 2.84,2.84 0 0 1 1.14,-2.49 c 0.18,-0.15 0.4,-0.3 0.45,-0.54 0.05,-0.24 -0.19,-0.57 -0.4101,-0.8 -0.9999,-1 -1.7699,-3.45 0.1102,-4 a 4.6299999,4.63 0 0 1 2.0001,0.09 c 0.4799,0.15 0.4799,0.44 0.85,0.64 0.3699,0.2 0.78,0.1 1.2,0.31 z"
         fill="#a1616a"
         id="path119"
         style="stroke-width:1" />
      <path
         d="m 388.84785,379.82909 a 3.3,3.3 0 0 1 2.54,1.28 7.3099999,7.31 0 0 1 1.06,3.4 29.81,29.81 0 0 0 4,10.86"
         opacity="0.1"
         id="path121"
         style="stroke-width:1" />
      <path
         d="m 385.34785,382.56909 a 3.88,3.88 0 0 1 3.32,2 11.1,11.1 0 0 1 0.84,3.39 18.42,18.42 0 0 0 3.3299,7.11"
         opacity="0.1"
         id="path123"
         style="stroke-width:1" />
      <path
         d="m 386.75997,450.3071 a 20.693389,20.693389 0 0 0 -39.60198,1.4744 12.937741,12.937741 0 1 0 -0.67253,25.86674 h 12.93337 v -5.17335 h -12.93337 a 7.7600208,7.7600208 0 0 1 0,-15.52004 8.0186881,8.0186881 0 0 1 2.04347,0.3104 l 2.89707,0.80187 0.36214,-2.97468 a 15.520042,15.520042 0 0 1 30.36755,-2.12107 l 0.388,1.3968 1.3968,0.41387 a 8.9498906,8.9498906 0 0 1 6.51842,8.63949 9.0533575,9.0533575 0 0 1 -9.05336,9.05336 h -6.46668 v 5.17335 h 6.46668 a 14.174971,14.174971 0 0 0 5.35442,-27.34114 z"
         id="path4"
         style="stroke-width:2.58667;fill:#01bf71;fill-opacity:1" />
      <polygon
         points="10.71,16.71 12,15.41 12,20 14,20 14,15.41 15.29,16.71 16.71,15.29 13,11.59 9.29,15.29 "
         id="polygon6"
         transform="matrix(2.5866736,0,0,2.5866736,333.55209,425.91476)"
         style="fill:#01bf71;fill-opacity:1" />
    </g>
  </g>
  <path
     d="m 755.9904,488.83589 c 0,0 7.38,-0.23 9.61,-1.81 2.23,-1.58 11.35,-3.48 11.9,-0.94 0.55,2.54 11.1,12.64 2.76,12.7 -8.34,0.06 -19.36,-1.29 -21.58,-2.65 -2.22,-1.36 -2.69,-7.3 -2.69,-7.3 z"
     fill="#a8a8a8"
     id="path157-6" />
  <path
     d="m 780.4104,497.90589 c -8.33,0.07 -19.36,-1.3 -21.58,-2.65 -1.69,-1 -2.37,-4.73 -2.59,-6.43 h -0.25 c 0,0 0.47,5.95 2.69,7.3 2.22,1.35 13.25,2.72 21.58,2.65 2.41,0 3.24,-0.87 3.19,-2.14 -0.33,0.78 -1.25,1.26 -3.04,1.27 z"
     opacity="0.2"
     id="path159-1" />
</svg>
